<svg width="100" height="104" viewBox="0 0 100 104" fill="none" xmlns="http://www.w3.org/2000/svg">
<circle cx="50" cy="53" r="44" fill="#FBE8DA"/>
<g clip-path="url(#clip0_62_10675)">
<path d="M42.6853 4.80586C42.6853 4.80586 46.4004 1.18849 51.7776 0.40636C57.1548 -0.375774 69.1801 1.77509 70.1578 15.5602C71.0377 29.2475 67.5181 30.2252 67.5181 30.2252C67.5181 30.2252 73.4818 33.647 72.6019 39.3175C71.9176 43.8148 69.3756 47.8232 58.328 47.3344C47.2803 46.8456 42.6853 4.80586 42.6853 4.80586Z" fill="#1B2734"/>
<path d="M65.0735 53.5921C62.5315 51.93 61.1628 51.2457 59.5985 47.2372C57.7409 42.4467 59.2074 33.3544 59.2074 31.7901C65.8556 18.5916 59.9896 15.072 54.5146 9.98812C48.9419 4.90425 42.4893 6.76182 42.4893 6.76182C38.3831 6.85958 36.0367 10.868 36.0367 10.868C36.0367 10.868 32.9082 17.0273 33.2993 28.075C33.5926 39.1226 35.2546 41.469 36.4278 43.131C37.601 44.7931 40.3385 45.0864 42.7826 45.0864C42.7826 48.2149 41.7072 51.1479 39.5563 52.5166C37.5032 53.8854 31.8328 56.6229 31.8328 56.6229C31.8328 56.6229 40.6318 68.1593 55.199 64.8353C67.0288 62.0978 71.2328 56.2318 71.2328 56.2318C71.2328 56.2318 67.7132 55.1563 65.0735 53.5921Z" fill="#F4C0AA"/>
<path d="M36.3301 20.742C35.1569 20.742 35.1569 23.0884 36.3301 23.0884C37.5033 23.0884 37.5033 20.742 36.3301 20.742Z" fill="#1B2734"/>
<path d="M46.2044 20.742C45.0312 20.742 45.0312 23.0884 46.2044 23.0884C47.3776 23.0884 47.3776 20.742 46.2044 20.742Z" fill="#1B2734"/>
<path d="M64.6825 12.1385C63.8026 8.13011 54.6126 4.41497 49.3332 3.4373C46.5957 2.06857 44.6404 2.45964 42.7828 3.24177C40.6319 4.12167 39.2632 4.3172 35.9391 8.03234C32.7128 11.7475 33.6905 19.3733 33.6905 19.3733C33.6905 19.3733 35.2548 14.7782 37.2101 12.2363C38.09 11.0631 40.0453 9.49884 41.8051 8.13011C42.4895 9.49884 45.3247 14.7782 50.4086 18.1023C56.2746 21.9152 62.1406 23.0884 62.1406 23.0884C62.1406 23.0884 65.758 17.1246 64.6825 12.1385Z" fill="#1B2734"/>
<path d="M57.9367 23.0892C57.9367 23.0892 58.7189 20.9384 60.772 20.3518C62.8251 19.7652 65.4648 22.6004 63.9983 26.2178C62.5318 29.8351 61.3586 31.8882 58.3278 31.2039C55.297 30.5195 57.9367 23.0892 57.9367 23.0892Z" fill="#F4C0AA"/>
<path d="M44.5425 36.3105C44.5425 36.3105 42.4894 36.6038 40.6318 36.506C38.6765 36.4083 37.21 36.3105 37.21 36.3105C37.21 36.3105 38.9698 38.8524 41.2184 38.8524C42.5871 38.8524 44.1514 37.9725 44.5425 36.3105Z" fill="white"/>
<path d="M43.7607 19.7638C43.7607 19.4705 44.5429 19.0794 45.6183 18.8839C46.7915 18.7861 47.6714 19.2749 47.8669 19.5682C47.9647 19.9593 46.7915 19.5682 46.2049 19.5682C45.7161 19.666 43.7607 20.0571 43.7607 19.7638Z" fill="#1B2734"/>
<path d="M37.9924 19.5698C37.9924 19.5698 36.7215 18.6899 35.5483 18.8854C34.2773 19.081 33.8862 19.6676 33.8862 19.6676C33.8862 19.6676 34.5706 19.9609 35.7438 19.8631C36.917 19.7653 38.188 20.1564 37.9924 19.5698Z" fill="#1B2734"/>
<path d="M37.7046 19.5694C38.7097 20.3957 40.4585 23.0333 39.413 26.9729C38.1061 31.8974 36.5995 31.8974 37.7046 33.0699C38.5886 34.0079 40.4399 33.7511 41.2551 33.5054" stroke="#C37833" stroke-width="0.770444"/>
<path d="M54.6882 34.3101C53.9737 37.6601 50.6018 44.5142 42.8296 45.1307" stroke="#C37833" stroke-width="0.770444"/>
<path d="M51.8749 23.1865C51.7771 21.5245 50.7017 19.6669 46.3999 19.7647C44.5424 19.8624 43.2714 20.3513 42.4893 21.3289C42.2937 21.6222 42.0982 21.9155 42.0004 22.2088C41.2183 21.8178 39.8496 21.4267 38.2853 22.1111C37.6009 20.6446 36.1344 19.7647 34.0813 19.7647C31.1483 19.7647 29.2908 21.4267 29.2908 23.8709C29.2908 26.5106 31.4416 29.7369 34.0813 29.7369C36.721 29.7369 38.7741 27.4882 38.7741 24.7508C38.7741 23.9686 38.6764 23.382 38.4808 22.7954C39.8496 22.1111 41.1205 22.5021 41.7071 22.8932C41.6094 23.5776 41.6094 24.3597 41.7071 25.2396C42.196 27.9771 44.1513 29.8346 46.5955 29.8346C46.6932 29.8346 46.8888 29.8346 46.9866 29.8346C49.8218 29.6391 52.0704 25.924 51.8749 23.1865ZM34.0813 29.1503C31.9305 29.1503 29.9751 26.315 29.9751 23.9686C29.9751 21.4267 32.126 20.5468 34.0813 20.5468C36.1344 20.5468 37.1121 21.4267 37.6009 22.5021L37.6987 22.5999C37.992 23.2843 38.0898 24.0664 38.0898 24.7508C38.0898 27.1949 36.33 29.1503 34.0813 29.1503ZM46.9866 29.1503C44.8357 29.3458 42.8803 27.6838 42.4893 25.2396C42.196 23.7731 42.3915 22.6977 43.0759 21.9155C43.7602 21.1334 44.8357 20.7423 46.3999 20.6446C46.5955 20.6446 46.6932 20.6446 46.8888 20.6446C49.6262 20.6446 50.995 21.5245 51.0928 23.382C51.2883 25.5329 49.333 28.9547 46.9866 29.1503Z" fill="white"/>
<path d="M51.4922 23.3605L58.2577 20.9537" stroke="white" stroke-width="1.28407"/>
<path d="M47.572 63.2213C42.977 62.3741 38.9685 58.4206 38.9685 58.4206L38.0886 99.3678C41.8038 100.921 45.7144 101.768 49.7229 101.768C50.7983 101.768 51.9715 101.627 53.0469 101.627L56.371 61.2446C56.4688 61.2446 52.167 64.0685 47.572 63.2213Z" fill="#005E51"/>
<path d="M60.9025 49.4371C61.6273 49.6105 63.0715 50.0778 64.944 50.7632C67.0963 51.551 69.7759 52.6125 72.4897 53.8026C75.2044 54.9931 77.947 56.3097 80.2281 57.6074C82.5123 58.907 84.282 60.1596 85.1223 61.2206C85.4216 61.7196 85.725 62.592 86.0221 63.7873C86.3202 64.9864 86.6033 66.473 86.8717 68.1557C87.4084 71.5205 87.8826 75.6454 88.301 79.7742C88.6092 82.8157 88.8867 85.8548 89.1364 88.5902C89.2257 89.5678 89.3114 90.5067 89.3937 91.393C89.692 94.605 89.9475 97.1519 90.1666 98.3282C88.3664 101.399 86.222 102.982 83.7945 103.661C81.314 104.355 78.4917 104.12 75.35 103.47C73.4485 103.076 71.4669 102.54 69.3918 101.979C68.0236 101.608 66.6147 101.227 65.1613 100.869C61.5276 99.972 57.6706 99.2335 53.6654 99.2335H53.6468H53.6282H53.6096H53.5909H53.5723H53.5537H53.5351H53.5165H53.4979H53.4793H53.4606H53.442H53.4234H53.4048H53.3862H53.3676H53.349H53.3304H53.3118H53.2932H53.2746H53.256H53.2374H53.2189H53.2003H53.1817H53.1631H53.1445H53.126H53.1074H53.0888H53.0703H53.0517H53.0332H53.0146H52.9961H52.9775H52.959H52.9405H52.9219H52.9034H52.8849H52.8664H52.8479H52.8294H52.8109H52.7924H52.7739H52.7554H52.7369H52.7185H52.7H52.6816H52.6631H52.6447H52.6262H52.6078H52.5894H52.5709H52.5525H52.5341H52.5157H52.4973H52.479H52.4606H52.4422H52.4238H52.4055H52.3871H52.3688H52.3505H52.3322H52.3138H52.2955H52.2772H52.259H52.2407H52.2224H52.2041H52.1859H52.1677H52.1494H52.1312H52.113H52.0948H52.0766H52.0584H52.0402H52.0221H52.0039H51.9858H51.9676H51.9495H51.9314H51.9133H51.8952H51.8771H51.8591H51.841H51.823H51.8049H51.7869H51.7689H51.7509H51.7329H51.7149H51.697H51.679H51.6611H51.6432H51.6253H51.6074H51.5895H51.5716H51.5538H51.5359H51.5181H51.5003H51.4825H51.4647H51.4469H51.4291H51.4114H51.3936H51.3759H51.3582H51.3405H51.3229H51.3052H51.2875H51.2699H51.2523H51.2347H51.2171H51.1995H51.182H51.1645H51.1469H51.1294H51.1119H51.0945H51.077H51.0596H51.0421H51.0247H51.0073H50.99H50.9726H50.9553H50.9379H50.9206H50.9033H50.8861H50.8688H50.8516H50.8344H50.8172H50.8H50.7828H50.7657H50.7486H50.7315H50.7144H50.6973H50.6802H50.6632H50.6462H50.6292H50.6122H50.5953H50.5783H50.5614H50.5445H50.5277H50.5108H50.494H50.4772H50.4604H50.4436H50.4268H50.4101H50.3934H50.3767H50.3601H50.3434H50.3268H50.3102H50.2936H50.277H50.2605H50.244H50.2275H50.211H50.1946H50.1781H50.1617H50.1454H50.129H50.1127H50.0964H50.0801H50.0638H50.0476H50.0313H50.0151H49.999H49.9828H49.9667H49.9506H49.9345H49.9185H49.9024H49.8864H49.8705H49.8545H49.8386H49.8227H49.8068H49.7909H49.7751H49.7593H49.7435H49.7278H49.7121H49.6964H49.6807H49.6651H49.6494H49.6338H49.6183H49.6027H49.5872H49.5717H49.5563H49.5408H49.5254H49.5101H49.4947H49.4794H49.4641H49.4488H49.4336H49.4184H49.4032H49.388H49.3729H49.3578H49.3427H49.3277H49.3127H49.2977H49.2827H49.2678H49.2529H49.238H49.2232H49.2084H49.1936H49.1789H49.1642H49.1495H49.1348H49.1202H49.1056H49.091H49.0765H49.062H49.0475H49.0331H49.0187H49.0043H48.9899H48.9756H48.9613H48.9471H48.9329H48.9187H48.9045H48.8904H48.8763H48.8622H48.8482H48.8342H48.8202H48.8063H48.7924H48.7785H48.7647H48.7509H48.7372H48.7234H48.7097H48.6961H48.6824H48.6688H48.6553H48.6418H48.6283H48.6148H48.6014H48.588H48.5746H48.5613H48.548H48.5348H48.5216H48.5084H48.4953H48.4822H48.4691H48.4561H48.4431H48.4301H48.4172H48.4043H48.3914H48.3786H48.3658H48.3531H48.3404H48.3277H48.3151H48.3025H48.2899H48.2774H48.2649H48.2525H48.2401H48.2277H48.2154H48.2031H48.1908H48.1786H48.1664H48.1543H48.1422H48.1301H48.1181H48.1061H48.0942H48.0823H48.0704H48.0586H48.0468H48.0351H48.0234H48.0117H48.0001H47.9885H47.977H47.9655H47.954H47.9426H47.9312H47.9198H47.9085H47.8973H47.8861H47.8749H47.8638H47.8527H47.8416H47.8306H47.8197H47.8087H47.7978H47.787H47.7762H47.7655H47.7547H47.7441H47.7335H47.7229H47.7123H47.7018H47.6914H47.681H47.6706H47.6603H47.65H47.6398H47.6296H47.6194H47.6093H47.5993H47.5893H47.5793H47.5694H47.5595H47.5497H47.5399H47.5302H47.5205H47.5108H47.5012H47.4916H47.4821H47.4727H47.4632H47.4539H47.4445H47.4353H47.426H47.4168H47.4077H47.3986H47.3895H47.3805H47.3716H47.3627H47.3538H47.345H47.3362H47.3275H47.3189H47.3102H47.3017H47.2931H47.2847H47.2762H47.2679H47.2595H47.2513H47.243H47.2348H47.2267H47.2186H47.2106H47.2026H47.1947H47.1868H47.1798C48.0145 94.3391 51.332 76.2525 53.0275 70.3179L53.0276 70.3179L53.0286 70.3142C54.0977 66.4264 56.0946 61.1402 57.8297 56.8148C58.6962 54.6545 59.4957 52.7382 60.0786 51.362C60.37 50.6739 60.6072 50.1209 60.7715 49.7401C60.8223 49.6222 60.8662 49.5209 60.9025 49.4371Z" fill="white" stroke="#005E51" stroke-width="0.770444"/>
<path d="M40.4344 50.1624C40.6393 50.0853 40.8204 50.0176 40.9737 49.9606C40.9471 50.2504 40.9118 50.6369 40.8697 51.1056C40.7703 52.2107 40.6327 53.7728 40.4799 55.6007C40.1743 59.2558 39.8074 63.9763 39.5627 68.2337C39.1823 74.2281 39.0792 93.2982 39.0734 99.0568C36.647 98.535 34.2575 98.6974 31.9647 99.1244C30.2589 99.4421 28.582 99.9124 26.9834 100.361C26.3043 100.551 25.6394 100.738 24.9924 100.907C22.797 101.48 20.7973 101.859 19.0039 101.611C17.2645 101.37 15.6931 100.536 14.3247 98.6292C13.8155 90.9459 14.2275 83.07 14.9862 76.6827C15.3673 73.4745 15.8354 70.6461 16.3167 68.41C16.8008 66.161 17.2912 64.5462 17.7057 63.7403L17.3631 63.5641L17.7057 63.7403C18.1138 62.9468 18.8734 62.0798 19.8773 61.1844C20.8764 60.2934 22.0945 59.3942 23.3932 58.5324C25.9905 56.809 28.8838 55.2526 30.9294 54.2298L30.9295 54.2299L30.9362 54.2263C32.8728 53.2096 35.5212 52.0914 37.6947 51.2245C38.7795 50.7918 39.7426 50.423 40.4344 50.1624Z" fill="white" stroke="#005E51" stroke-width="0.770444"/>
<path d="M67.9088 82.5304C67.0289 82.3349 65.8557 81.455 64.6825 80.5751C62.6294 81.3572 60.4785 81.5527 60.3807 81.5527L60.283 80.4773C60.283 80.4773 62.0428 80.3795 63.8026 79.7929C62.7271 78.7175 61.945 77.6421 61.7495 76.8599C61.5539 75.3934 61.6517 62.3905 63.9003 59.5552C65.7579 57.1111 67.7132 57.2088 68.7887 57.5021C70.6462 58.0887 71.9172 59.9463 72.015 61.315C72.1127 63.3681 69.7663 75.6867 67.811 78.4242C67.3222 79.1086 66.6378 79.6952 65.7579 80.0862C66.6378 80.7706 67.5177 81.3572 68.1043 81.5527L67.9088 82.5304ZM67.7132 58.382C66.7356 58.382 65.7579 58.9686 64.878 60.1418C63.0204 62.4882 62.7271 75.0024 62.9227 76.6644C63.0204 77.1532 63.9003 78.2287 64.9758 79.3041C65.7579 78.913 66.54 78.4242 67.0289 77.7398C68.6909 75.2957 71.1351 63.4659 71.0373 61.315C71.0373 60.4351 70.0596 58.9686 68.5931 58.5776C68.2021 58.4798 68.0065 58.382 67.7132 58.382Z" fill="#1B2734"/>
<path d="M70.2547 83.2146C70.0591 83.7035 69.4725 83.899 68.9837 83.7035L68.1038 83.3124C67.615 83.1169 67.4194 82.5303 67.615 82.0414C67.8105 81.5526 68.3971 81.3571 68.8859 81.5526L69.7658 81.9437C70.2547 82.1392 70.4502 82.7258 70.2547 83.2146Z" fill="#FFD968"/>
<path d="M60.9676 80.9672C60.9676 81.4561 60.5765 81.9449 60.0877 82.0427L59.2078 82.1404C58.7189 82.1404 58.2301 81.7494 58.1323 81.2605C58.1323 80.7717 58.5234 80.2829 59.0122 80.1851L59.8921 80.0873C60.4787 80.0873 60.9676 80.4784 60.9676 80.9672Z" fill="#FFD968"/>
<path d="M59.5005 46.8459C59.5005 46.9437 59.5983 47.1392 59.5983 47.237C59.696 47.5303 59.8916 47.9213 59.9893 48.2146C62.0424 48.9968 65.9531 51.3432 67.6151 58.3824L68.6906 58.0891C66.6375 49.3879 61.3581 47.3348 59.5005 46.8459Z" fill="#1B2734"/>
<path d="M42.3919 48.1169C40.5343 48.6058 36.8192 50.2678 34.7661 55.0584C32.0286 61.3155 31.3442 65.715 31.3442 65.9105L32.4197 66.106C32.4197 66.106 33.104 61.7065 35.7437 55.5472C37.4058 51.7343 40.1432 50.0723 41.903 49.4857C42.0986 48.9968 42.1963 48.6058 42.3919 48.1169Z" fill="#1B2734"/>
<path d="M31.5391 73.1441C34.1849 73.1441 36.3297 70.9992 36.3297 68.3535C36.3297 65.7077 34.1849 63.5629 31.5391 63.5629C28.8933 63.5629 26.7485 65.7077 26.7485 68.3535C26.7485 70.9992 28.8933 73.1441 31.5391 73.1441Z" fill="#DCDFE3"/>
<path d="M31.5397 70.896C32.9436 70.896 34.0817 69.7579 34.0817 68.354C34.0817 66.9502 32.9436 65.8121 31.5397 65.8121C30.1359 65.8121 28.9978 66.9502 28.9978 68.354C28.9978 69.7579 30.1359 70.896 31.5397 70.896Z" fill="white"/>
</g>
<defs>
<clipPath id="clip0_62_10675">
<rect width="86.0347" height="96.7891" fill="white" transform="translate(7 0.210938)"/>
</clipPath>
</defs>
</svg>
