	<svg width="101" height="104" viewBox="0 0 101 104" fill="none" xmlns="http://www.w3.org/2000/svg">
	<circle cx="50.6666" cy="53" r="44" fill="#FBE8DA"/>
	<path d="M87.0986 72.7444C85.3354 68.0415 81.3182 57.0682 78.6399 49.7852C76.9748 45.2129 73.9045 41.2938 69.8549 38.5505C67.4384 36.9176 64.7601 35.7419 61.9186 35.1214L56.9877 34.011L44.2179 34.6968L38.4047 36.7543C32.4281 38.8771 27.562 43.3187 24.9819 49.0995L15.7396 69.576C13.1922 75.2264 15.4783 81.9538 21.0629 84.6321C23.1857 85.644 25.7331 86.0359 28.6724 85.089C29.5541 84.6646 32.7874 83.0313 32.8853 83.652C33.2119 85.6772 31.677 96.2214 31.1544 98.2134C31.1218 98.3115 31.0891 98.4421 31.0891 98.5403C31.4483 98.7034 31.8076 98.834 32.2321 98.899C37.2616 99.781 42.3563 100.434 47.4511 100.859C53.4605 101.349 59.6329 101.545 65.6096 100.695C68.3197 100.304 71.1287 99.6829 73.5783 98.3765C72.6307 97.0702 72.0431 89.5631 71.7494 87.963C71.4225 86.1997 71.1287 84.1746 71.3575 82.3782C71.3575 82.3457 73.1864 83.3583 73.382 83.4564C74.6558 84.1421 76.0272 84.3052 77.4642 84.3052C78.5092 84.2727 79.5543 84.1746 80.5994 83.9458C82.8858 83.4232 85.0085 82.2807 86.3473 80.3212C87.8174 78.0672 88.0456 75.2589 87.0986 72.7444Z" fill="#00C3A5"/>
	<path d="M47.6464 31.2667C49.2793 31.3973 50.9123 31.528 52.5123 31.4626C55.9088 31.332 59.2728 30.2869 62.6043 30.8095C62.963 30.8748 63.3224 30.9401 63.6162 31.1687C64.1719 31.6259 64.1062 32.5403 63.6818 33.1282C63.2574 33.7161 62.5711 34.01 61.9179 34.3039C58.4564 35.7409 54.733 36.688 50.9776 36.59C46.536 36.4921 42.2577 34.8918 38.0774 33.3568C34.8442 32.1484 36.2159 30.3522 39.0898 30.5808C41.9311 30.7768 44.7724 31.038 47.6464 31.2667Z" fill="#FFD968"/>
	<path d="M40.135 30.9404C40.4616 32.4427 41.9965 33.3245 43.4335 33.8797C45.9155 34.8268 48.5935 35.3493 51.2389 35.382C53.2309 35.4146 55.4517 35.0554 56.7255 33.5204C58.195 31.7568 57.8031 28.9482 56.3336 27.2173C54.8641 25.4864 52.5777 24.6046 50.3245 24.2127C48.1363 23.8535 45.1317 23.6575 43.3028 25.1598C41.8332 26.3355 39.7431 28.9809 40.135 30.9404Z" fill="#1B2734"/>
	<path d="M45.099 28.8827C41.8331 25.7149 39.1224 21.8612 38.0447 17.4522C36.967 13.0433 37.7835 8.04653 40.8534 4.68272C44.7724 0.404399 51.6309 -0.281402 56.9212 2.13534C57.9663 2.59256 58.9789 3.18042 59.7627 3.99685C60.579 4.84598 61.1347 5.85843 61.5916 6.93613C63.2898 10.9205 63.7142 15.4274 62.7998 19.6404C62.1798 22.4817 60.1871 25.0943 58.5545 27.4785C57.9995 28.2949 57.3788 29.1114 56.5293 29.5686C55.713 29.9931 54.7986 30.0585 53.8841 30.0912C52.5778 30.1565 51.2715 30.2218 49.9978 30.0912C48.3322 29.8952 46.2747 30.0258 45.099 28.8827Z" fill="#1B2734"/>
	<path d="M61.1021 17.1263C61.1021 9.45154 56.4643 3.2464 50.7817 3.2464C45.0665 3.2464 40.4615 9.45154 40.4615 17.1263C40.4615 21.8618 42.2251 26.0748 44.9358 28.5568C44.9031 28.5568 44.8378 28.5895 44.8052 28.5895C44.7725 30.9083 44.7725 33.1944 44.7399 35.5132C44.7399 35.7091 44.7399 35.9051 44.8378 36.0357C44.9358 36.199 45.1318 36.2316 45.295 36.297C47.2219 36.8195 49.2141 36.9828 51.2064 37.1461C52.3165 37.244 53.3616 37.7993 54.4066 37.3747C55.4517 36.9501 56.4318 36.3296 57.5419 36.2316C56.2355 34.2068 56.1705 31.5941 56.0074 29.0794C59.0445 26.6626 61.1021 22.221 61.1021 17.1263Z" fill="#F4C0AA"/>
	<path d="M49.2793 9.71331C47.9077 11.8688 45.7196 13.3711 44.0213 15.2653C42.3231 17.1595 41.0167 19.8375 41.9312 22.2215C39.743 19.217 39.5471 15.2 40.037 11.5095C40.2656 9.68063 40.6575 7.85174 41.6699 6.31681C42.9436 4.38992 45.0337 3.11627 47.2545 2.46309C52.8389 0.764842 51.0431 6.96999 49.2793 9.71331Z" fill="#1B2734"/>
	<path d="M52.3172 9.22285C53.7217 11.3457 55.9425 12.8153 57.6733 14.6769C59.4047 16.5384 60.7435 19.2164 59.8616 21.6005C62.0173 18.5632 62.1148 14.5136 61.5923 10.8558C61.331 9.05959 60.9066 7.19801 59.8941 5.69571C58.5877 3.76889 56.4651 2.56048 54.2443 1.90731C48.627 0.339694 50.5212 6.54484 52.3172 9.22285Z" fill="#1B2734"/>
	<path d="M44.7073 14.3819C45.4585 13.99 46.3729 13.9574 46.9281 14.2513C46.9608 14.2513 47.0587 14.3166 47.0914 14.3166C47.2547 14.4472 47.1893 14.6105 46.8955 14.7085C46.6342 14.8065 46.2749 14.7738 45.981 14.7738C45.4911 14.8391 45.1319 15.0024 44.7073 15.1657C44.4134 15.2963 44.0868 15.329 44.0215 15.1004C43.9562 14.8391 44.3807 14.5452 44.7073 14.3819Z" fill="#1B2734"/>
	<path d="M54.2444 13.86C55.0607 13.6968 55.9752 13.9907 56.3671 14.4479C56.4002 14.4806 56.4652 14.5459 56.4977 14.5459C56.5958 14.7092 56.4977 14.8398 56.1714 14.8398C55.9102 14.8398 55.5833 14.7092 55.2895 14.6112C54.7995 14.5132 54.4075 14.5785 53.9831 14.5785C53.6569 14.6112 53.33 14.5459 53.3625 14.2846C53.3625 14.0887 53.8525 13.9254 54.2444 13.86Z" fill="#1B2734"/>
	<path d="M42.2727 25.2155L42.7901 26.101C41.0537 26.2713 39.7838 28.1892 39.886 29.8234C39.886 30.4362 39.9882 31.0149 40.1925 31.5937C39.6817 30.4702 39.4094 29.2105 39.7157 27.9508C40.0562 26.6571 40.8769 25.4878 42.2727 25.2155Z" fill="#1B2734"/>
	<path d="M61.5921 17.5506C61.984 17.322 62.5065 17.2893 62.8659 17.5179C63.4209 17.8445 63.5191 18.5957 63.4534 19.2489C63.3884 20.0327 63.1272 20.7838 62.6371 21.4043C62.1471 22.0248 61.4289 22.482 60.6451 22.5147C60.547 22.5147 60.4163 22.5147 60.3838 22.4494C60.3507 22.3841 60.3507 22.3188 60.3507 22.2535C60.4488 21.3063 60.547 20.3593 60.6451 19.4121C60.7426 18.8243 60.8407 17.7139 61.5921 17.5506Z" fill="#F4C0AA"/>
	<path d="M62.0816 23.7555C61.951 23.7555 61.8535 23.7555 61.7228 23.6901C61.0365 23.4942 60.6778 22.8083 60.8409 22.1225C61.0365 21.4367 61.7228 21.0774 62.4085 21.2407C62.7348 21.3387 62.9961 21.5347 63.1598 21.8613C63.323 22.1551 63.3555 22.5144 63.2573 22.841C63.1267 23.3962 62.6373 23.7555 62.0816 23.7555ZM61.4616 22.2858C61.3634 22.6124 61.5591 22.9716 61.9185 23.0696C62.2454 23.1676 62.6041 22.9716 62.7023 22.6124C62.7348 22.4491 62.7348 22.2858 62.6373 22.1225C62.5392 21.9592 62.4085 21.8613 62.2454 21.8286C62.0816 21.7959 61.9185 21.7959 61.7553 21.8939C61.6247 21.9919 61.4941 22.1225 61.4616 22.2858Z" fill="#FFD968"/>
	<path d="M41.0263 19.7067C41.1895 20.6538 41.2876 21.6009 41.4508 22.5153C41.4508 22.5806 41.4508 22.6787 41.4182 22.7113C41.3855 22.8093 41.2549 22.8093 41.1569 22.8093C40.3731 22.8093 39.6546 22.3847 39.1321 21.7968C38.6095 21.209 38.3156 20.4579 38.2176 19.6741C38.1196 19.0535 38.1849 18.2697 38.7402 17.9105C39.0994 17.6492 39.6219 17.6818 40.0138 17.8778C40.765 18.0411 40.8957 19.1515 41.0263 19.7067Z" fill="#F4C0AA"/>
	<path d="M39.5152 24.3107C38.9927 24.3107 38.5027 23.9841 38.3068 23.4616C38.0782 22.8084 38.4374 22.0899 39.0906 21.8614C39.4172 21.7633 39.7438 21.7633 40.0704 21.9267C40.3643 22.0899 40.5929 22.3186 40.7235 22.6452C40.8215 22.9717 40.8215 23.2983 40.6582 23.6249C40.495 23.9188 40.2663 24.1475 39.9397 24.2781C39.8091 24.2781 39.6458 24.3107 39.5152 24.3107ZM39.5152 22.3839C39.4499 22.3839 39.3846 22.3839 39.3192 22.4165C38.9927 22.5472 38.7967 22.9064 38.9273 23.233C38.9927 23.3963 39.0906 23.5269 39.2539 23.5922C39.4172 23.6575 39.5805 23.6902 39.7438 23.6249C39.9071 23.5596 40.0377 23.4616 40.1031 23.2983C40.1684 23.135 40.201 22.9717 40.1357 22.8084C40.0704 22.6452 39.9724 22.5145 39.8091 22.4492C39.7112 22.4165 39.6131 22.3839 39.5152 22.3839Z" fill="#FFD968"/>
	<path d="M44.6853 28.5866C47.255 30.5363 50.5729 32.0466 55.5929 29.3573" stroke="#C37833" stroke-width="0.873529"/>
	<path d="M55.7781 30.4175C56.3657 30.3195 56.7576 29.7969 56.6926 29.2091C56.5945 28.6212 56.0719 28.2293 55.4844 28.2946C55.4187 28.2946 55.3537 28.3273 55.2881 28.3599L51.8591 24.8002L51.2059 25.4207L54.6349 29.0131C54.5699 29.1764 54.5368 29.3724 54.5699 29.5683C54.6349 30.0909 55.19 30.5154 55.7781 30.4175Z" fill="white"/>
	<path d="M51.6567 24.9545L51.3973 25.2028L54.3771 28.3183L54.6364 28.07L51.6567 24.9545Z" fill="#EA5A60"/>
	<path d="M55.6154 29.9935C55.9583 29.9935 56.2361 29.7157 56.2361 29.373C56.2361 29.0303 55.9583 28.7524 55.6154 28.7524C55.2726 28.7524 54.9948 29.0303 54.9948 29.373C54.9948 29.7157 55.2726 29.9935 55.6154 29.9935Z" fill="#DCDFE3"/>
	<path d="M49.3124 26.6621C49.2144 26.6621 49.1164 26.6295 49.0511 26.5642C48.8878 26.4336 48.8878 26.1723 49.0184 26.009C49.9655 24.9313 51.435 24.4087 52.872 24.572C53.1008 24.6047 53.2314 24.8006 53.1989 24.9966C53.1658 25.2252 52.9702 25.3558 52.7739 25.3232C51.6313 25.1598 50.3901 25.6171 49.6063 26.4989C49.541 26.6295 49.443 26.6621 49.3124 26.6621Z" fill="#C37833"/>
	<path d="M46.307 18.5298C45.9151 18.889 45.36 18.8564 44.9027 18.5951C44.8047 18.5298 44.7068 18.4645 44.6415 18.3339C44.5435 18.0726 44.7068 17.746 44.9027 17.648C45.0987 17.5501 45.3599 17.5174 45.5885 17.4521C45.8498 17.3541 46.405 16.8969 46.6336 17.3214C46.8622 17.648 46.5356 18.3012 46.307 18.5298Z" fill="#CE8768"/>
	<path d="M54.3735 18.4645C54.7654 18.8237 55.321 18.7911 55.7779 18.4971C55.8761 18.4318 55.9742 18.3665 56.0392 18.2359C56.1373 17.9746 55.9742 17.648 55.7454 17.5501C55.5167 17.4521 55.2879 17.4521 55.0598 17.3541C54.7654 17.2561 54.2428 16.8316 54.0147 17.2235C53.7859 17.5827 54.1453 18.2359 54.3735 18.4645Z" fill="#CE8768"/>
	<path d="M45.9486 17.7142C46.9283 17.7468 46.8957 15.9833 45.8832 15.9506C45.0015 15.918 44.9688 17.6815 45.9486 17.7142Z" fill="#1B2734"/>
	<path d="M54.7343 17.7142C55.7137 17.7468 55.6812 15.9833 54.6686 15.9506C53.8198 15.918 53.7542 17.6815 54.7343 17.7142Z" fill="#1B2734"/>
	<path d="M36.1506 31.2999C36.1506 31.2999 50.8143 39.6279 63.4207 31.2999C64.7596 31.6265 67.3073 37.3744 66.6541 42.1426C66.8172 42.6325 47.2545 50.6992 35.4648 42.0773C35.1382 41.816 34.9095 41.4241 34.8769 40.9996C34.7789 39.5952 34.2891 35.9048 36.1506 31.2999Z" fill="white"/>
	<path d="M35.9549 42.404C35.2364 46.9109 33.1463 60.7582 33.7668 69.0863C33.8648 69.1838 45.2953 69.0863 45.2953 69.0863C45.2953 69.0863 45.3933 52.3651 47.1242 45.9311C43.2378 45.6698 39.3187 44.6901 35.9549 42.404Z" fill="white"/>
	<path d="M40.788 65.656L45.7195 70.0651C45.7195 70.0651 36.3138 82.116 29.3575 84.8593C28.8676 84.3368 24.6547 72.7759 24.6547 72.7759C24.6547 72.7759 33.3092 66.9955 40.788 65.656Z" fill="#00C3A5"/>
	<path d="M42.8456 33.879C38.8286 32.8012 36.1506 31.2663 36.1506 31.2663C34.2891 35.8711 34.7789 39.5616 34.8769 40.9659C34.9095 41.3905 35.1055 41.7824 35.4648 42.0437C37.2937 43.3826 39.2858 44.2971 41.376 44.9502C40.9514 41.6191 41.3106 38.1899 42.4537 35.0547C42.6497 34.4995 42.8129 34.1729 42.8456 33.879Z" fill="#FFD968"/>
	<path d="M58.1299 45.0174C58.1299 44.9847 58.1299 44.952 58.1299 44.9194C58.5218 41.2943 58.228 37.6039 57.1829 34.1421C54.864 34.7952 52.5782 35.0238 50.3899 35.0238C50.3899 35.0565 50.3899 35.0565 50.3899 35.0891C50.292 35.7097 50.7165 36.7874 50.8145 37.4406C50.9125 38.0611 51.1737 43.809 50.9778 45.9971C53.5252 45.8339 55.9747 45.4746 58.1299 45.0174Z" fill="#FFD968"/>
	<path d="M63.4212 31.2663C63.0618 31.5276 62.6699 31.7561 62.3112 31.9521C62.3762 32.2461 62.5393 32.5726 62.7356 33.1278C63.1275 34.2382 63.2581 35.4466 63.3887 36.5896C63.65 38.8104 63.9438 41.0312 64.2707 43.2194C65.8052 42.6641 66.6871 42.1743 66.6546 42.0763C67.2753 37.3408 64.7601 31.6255 63.4212 31.2663Z" fill="#FFD968"/>
	<path d="M47.1571 45.9311C43.2381 45.6698 39.3191 44.6574 35.9552 42.404C35.7919 43.4817 35.5307 45.1147 35.2367 47.0742C35.8899 47.5967 36.7064 47.9235 37.4249 48.1848C39.6783 49.0336 42.0297 49.3273 44.3811 49.5886C45.0343 49.6542 45.7202 49.7192 46.406 49.7192C46.6346 48.2823 46.8632 46.9762 47.1571 45.9311Z" fill="#FFD968"/>
	<path d="M45.7193 57.166C42.4535 57.0353 39.2203 56.7091 36.0198 56.154C35.3666 56.0234 34.7787 55.9578 34.2235 55.5984C33.9622 58.4073 33.7337 61.2813 33.6683 63.959C35.4645 64.3509 37.2608 64.6453 39.057 64.6778C41.2125 64.7428 43.4332 64.4165 45.3928 63.5346C45.4908 61.6407 45.5887 59.4199 45.7193 57.166Z" fill="#FFD968"/>
	<path d="M46.2427 60.2354C46.8958 59.4516 47.647 58.6678 48.5614 58.1778C49.5739 57.7208 50.5536 57.5246 51.697 57.3939C53.2314 57.1983 54.8322 57.0677 56.3017 57.002C56.5629 57.002 56.8242 57.002 56.9548 57.1327C57.1505 57.3289 57.0855 57.7209 56.8892 57.9165C56.6936 58.1128 56.4323 58.2434 56.171 58.3084C54.7016 58.7659 53.2314 59.2885 51.8276 59.7454C54.3422 60.5948 57.2811 59.1578 59.8938 59.811C60.1551 59.876 60.4163 59.9416 60.547 60.2029C60.7432 60.4642 60.6126 60.8561 60.3513 61.1824C60.0901 61.4436 59.8288 61.313 59.4694 61.3786C57.608 61.9662 55.681 62.4237 53.754 62.6193C53.4927 62.685 53.0358 63.0769 53.1008 63.3381C54.8972 63.2725 56.6936 63.2725 58.49 63.2075C58.6856 63.2075 58.9469 63.2075 59.1431 63.3381C59.3388 63.5338 59.2738 63.9257 59.0775 64.1219C58.8819 64.3176 58.555 64.3832 58.1956 64.4482C56.5304 64.7751 54.8647 65.167 53.1989 65.5589C54.4728 65.5589 55.6485 65.5589 56.8567 65.5589C57.2486 65.5589 57.8693 65.6896 57.9343 66.0815C57.9343 66.4077 57.608 66.604 57.3467 66.7346C55.616 67.3878 53.5583 66.9959 51.8276 67.7141C51.1744 67.9754 50.4883 68.4329 49.7698 68.7592C49.0513 69.0861 48.1042 69.0204 47.3204 69.0861C46.5366 69.2167 46.1774 69.478 45.7201 70.1961C44.8383 68.6942 39.6456 67.8772 40.7886 65.7871C40.7886 65.7221 42.9768 64.0238 43.5973 63.2725C44.3811 62.1624 45.3282 61.1824 46.2427 60.2354Z" fill="#F4C0AA"/>
	<path d="M59.4357 61.9993C59.8608 62.8812 61.6896 64.9714 61.6896 65.037C62.4078 67.2903 57.1499 67.094 56.0067 68.4004C55.6804 67.6166 55.4192 67.2903 54.6679 66.9965C53.8841 66.7678 52.9696 66.6696 52.3164 66.2127C51.6633 65.7552 51.1082 65.1677 50.4876 64.8083C48.9199 63.7632 46.8298 63.7632 45.2622 62.7831C45.0335 62.62 44.7396 62.3587 44.805 62.0324C44.9356 61.673 45.5561 61.6405 45.948 61.738C47.1237 61.9668 48.2994 62.1956 49.5404 62.4568C47.9728 61.738 46.4379 61.0523 44.8703 60.3992C44.5437 60.2685 44.2497 60.1379 44.0865 59.9091C43.9231 59.681 43.9231 59.2891 44.1844 59.1253C44.413 59.0278 44.6743 59.0928 44.8703 59.1253C46.6338 59.5504 48.3974 59.8766 50.1283 60.301C50.2589 60.0729 49.867 59.5829 49.6057 59.4847C47.7442 58.9297 45.948 58.0802 44.2171 57.1658C43.8905 57.0352 43.6292 57.1008 43.4006 56.807C43.2046 56.4476 43.1393 56.0232 43.4006 55.827C43.5965 55.5982 43.8578 55.5982 44.1191 55.5657C46.7971 55.4351 49.3772 57.3946 52.0227 57.0683C50.7488 56.3495 49.4098 55.5657 48.0708 54.8144C47.8095 54.6837 47.5809 54.5206 47.4176 54.2918C47.2543 54.0637 47.2543 53.6718 47.5156 53.508C47.6789 53.4105 47.9402 53.443 48.2014 53.508C49.6384 53.8674 51.1732 54.2918 52.6427 54.7819C53.7209 55.1413 54.6679 55.5007 55.5498 56.1539C56.3661 56.8395 56.9212 57.754 57.4437 58.6359C58.1294 59.746 58.8482 60.8892 59.4357 61.9993Z" fill="#F4C0AA"/>
	<path d="M54.603 67.3543C54.5705 67.3543 54.5705 67.3543 54.538 67.3543C53.101 67.0281 51.729 66.3749 50.586 65.4279L50.4228 65.2973C50.1941 65.101 49.9982 64.9379 49.7696 64.8073C49.5083 64.6766 49.2144 64.5785 48.9204 64.4804L45.8832 63.5659C45.5566 63.4684 45.1647 63.3378 44.9034 63.0434C44.5768 62.7171 44.4789 62.0964 44.8381 61.737C45.1974 61.3783 45.7199 61.4758 45.9811 61.5089L46.7323 61.6395C46.3731 61.4758 45.9812 61.3126 45.6219 61.182C45.4586 61.117 45.3606 60.9532 45.426 60.7901C45.4913 60.627 45.6546 60.5288 45.8179 60.5945C46.8302 60.9532 47.7774 61.4433 48.6918 61.9983C48.8225 62.0639 48.8551 62.2271 48.8225 62.3577C48.7571 62.4883 48.6265 62.5865 48.4632 62.554L45.8832 62.0964C45.6546 62.0639 45.3933 62.0314 45.2953 62.1289C45.1974 62.2271 45.23 62.4558 45.3606 62.5865C45.524 62.7821 45.8179 62.8477 46.0791 62.9459L49.1164 63.8603C49.443 63.9578 49.7696 64.056 50.0635 64.2191C50.3574 64.3829 50.586 64.5785 50.8147 64.7748L50.9779 64.9054C52.056 65.7867 53.3292 66.4074 54.6686 66.7011C54.8318 66.7343 54.9299 66.8974 54.8968 67.0606C54.8643 67.2568 54.7336 67.3543 54.603 67.3543Z" fill="#C37833"/>
	<g filter="url(#filter0_d_62_10621)">
	<path d="M49.9334 60.4976C49.6395 60.4976 49.3455 60.3994 49.117 60.3013L49.019 60.2688C48.3005 59.975 47.5494 59.8444 46.7982 59.8444C46.6349 59.8444 46.5043 59.7138 46.5043 59.5175C46.5043 59.3544 46.6349 59.2237 46.8309 59.2237C47.6147 59.2237 48.3658 59.3869 49.117 59.6481C48.6271 59.2894 48.0719 59.0606 47.484 58.995C47.3207 58.9625 47.1901 58.8318 47.2228 58.6362C47.2554 58.4724 47.4187 58.3418 47.582 58.3749C48.5291 58.5056 49.4436 58.9625 50.0967 59.6813C50.162 59.7788 50.3906 59.975 50.3253 60.2688C50.2927 60.3994 50.162 60.5301 50.0314 60.5301C49.9661 60.4976 49.9334 60.4976 49.9334 60.4976Z" fill="#C37833"/>
	</g>
	<path d="M24.7529 71.601C24.6549 71.601 24.5569 71.5685 24.4916 71.5028C24.3283 71.3397 24.3283 71.1109 24.459 70.9478C25.602 69.7396 27.3003 69.217 28.6719 68.792L40.4944 65.1674C40.6903 65.1017 40.919 65.2324 40.9843 65.4286C41.0496 65.6243 40.9189 65.853 40.723 65.918L28.9006 69.5433C27.5615 69.9677 26.0266 70.4253 25.0141 71.4703C24.9488 71.5685 24.8509 71.601 24.7529 71.601Z" fill="#005E51"/>
	<path d="M78.3453 69.3795C78.2472 69.3795 78.1497 69.347 78.0841 69.2814C76.0921 67.2894 72.9893 66.865 70.246 66.7343C69.9197 66.7343 69.6253 66.7012 69.2991 66.7012C66.6539 66.6037 63.9105 66.4731 61.5591 65.1667C61.3628 65.0686 61.2978 64.8398 61.3953 64.6442C61.4935 64.4479 61.7222 64.3829 61.9179 64.4804C64.1062 65.6893 66.7514 65.7868 69.2991 65.9174C69.6253 65.9174 69.9522 65.9505 70.246 65.9505C73.1525 66.0812 76.4183 66.5381 78.6066 68.7264C78.7698 68.8895 78.7698 69.1183 78.6066 69.2814C78.5416 69.347 78.4435 69.3795 78.3453 69.3795Z" fill="#005E51"/>
	<path d="M45.6692 70.1164C44.1321 72.2301 40.3969 77.0568 37.753 79.4548C35.1091 81.8528 30.5796 84.2201 28.6453 85.104" stroke="#005E51" stroke-width="0.873529" stroke-linecap="round"/>
	<path d="M70.5401 66.5382C70.442 66.5382 70.3438 66.5057 70.2457 66.4401C70.0825 66.3094 69.9844 66.0157 70.115 65.7869C70.115 65.7544 70.1482 65.7544 70.1482 65.7219C69.56 63.7624 69.0375 61.7372 68.5806 59.7127C68.5474 59.5164 68.6781 59.2883 68.8743 59.2552C69.07 59.2227 69.2987 59.3533 69.3312 59.5496C69.7563 61.5741 70.3113 63.6318 70.8989 65.6238V65.6563C70.932 65.82 71.0626 66.1463 70.7682 66.4076C70.7682 66.5057 70.6376 66.5382 70.5401 66.5382Z" fill="#005E51"/>
	<path d="M31.1218 68.7264C30.8931 68.7264 30.7299 68.5301 30.7299 68.302L30.9258 64.1867C30.9258 63.9579 31.1218 63.7948 31.3177 63.8273C31.5463 63.8273 31.7096 64.0235 31.6769 64.2192L31.481 68.3345C31.481 68.5633 31.3177 68.7264 31.1218 68.7264Z" fill="#005E51"/>
	<path d="M54.9246 4.25294L52.8032 9.19336C52.0697 10.7793 53.1919 12.6085 54.9004 12.6085C56.5591 12.6085 57.6819 10.8705 57.0415 9.29971C56.0423 6.84219 54.6933 4.01984 54.9246 4.25294Z" fill="#DCDFE3"/>
	<path d="M59.5729 13.5519L57.4515 18.4923C56.7181 20.0783 57.8402 21.9075 59.5487 21.9075C61.2074 21.9075 62.3303 20.1695 61.6898 18.5987C60.6906 16.1412 59.3416 13.3188 59.5729 13.5519Z" fill="#DCDFE3"/>
	<path d="M55.9691 68.5793C58.1466 71.1797 63.0858 76.857 65.4224 78.7632C67.7589 80.6693 70.1877 81.9913 71.11 82.4141" stroke="#005E51" stroke-width="0.873529" stroke-linecap="round"/>
	<path d="M36.3805 31.3788C38.4612 32.5603 44.0791 34.9339 50.3007 34.9762C56.5224 35.0185 61.781 32.5956 63.6326 31.3789" stroke="#CE8768" stroke-width="0.873529" stroke-linecap="round"/>
	<path d="M34.8899 41.5165C38.8971 44.6387 50.8551 49.1291 66.6289 42.1131" stroke="#CE8768" stroke-width="0.873529" stroke-linecap="round"/>
	<path d="M48.1852 15.4339C49.0506 15.5713 50.6572 16.4095 50.1608 18.6629C49.5403 21.4796 48.0158 23.2888 51.206 23.3575" stroke="#C37833" stroke-width="0.873529"/>
	<defs>
	<filter id="filter0_d_62_10621" x="44.1749" y="58.3698" width="8.49147" height="6.81913" filterUnits="userSpaceOnUse" color-interpolation-filters="sRGB">
	<feFlood flood-opacity="0" result="BackgroundImageFix"/>
	<feColorMatrix in="SourceAlpha" type="matrix" values="0 0 0 0 0 0 0 0 0 0 0 0 0 0 0 0 0 0 127 0" result="hardAlpha"/>
	<feOffset dy="2.32941"/>
	<feGaussianBlur stdDeviation="1.16471"/>
	<feComposite in2="hardAlpha" operator="out"/>
	<feColorMatrix type="matrix" values="0 0 0 0 0 0 0 0 0 0 0 0 0 0 0 0 0 0 0.25 0"/>
	<feBlend mode="normal" in2="BackgroundImageFix" result="effect1_dropShadow_62_10621"/>
	<feBlend mode="normal" in="SourceGraphic" in2="effect1_dropShadow_62_10621" result="shape"/>
	</filter>
	</defs>
	</svg>
